<svg xmlns="http://www.w3.org/2000/svg" width="503" height="242" fill="none"><path fill="#000" fill-rule="evenodd" d="M291.068 131.923h-13.434l-16.69-36.309c-.407-.807-.815-1.21-.815-1.614-.407-.403-.407-.806-.814-.806s-.814-.404-1.221-.404h-1.628V87.95h22.797v4.841h-3.257c-.407 0-.814.404-.814.404v1.613c.407.807.814 1.614 1.221 3.228l10.584 24.609 10.178-24.206c.407-1.613 1.221-2.42 1.221-3.227.407-.807.407-1.21.407-1.614 0-.403-.407-.403-.814-.807h-2.443V87.95h15.877v4.841h-2.85c-.407 0-.407 0-.814.404-.407 0-.407.403-.814.806-.407.404-.407.807-.815 1.614l-15.062 36.309Zm75.719-43.974h17.504v4.034c.408-.403 1.222-.806 2.036-1.21.814-.403 2.035-1.21 3.257-1.614 1.221-.403 2.849-1.21 4.478-1.614 1.628-.403 3.663-.403 6.106-.403 5.292 0 9.363 1.21 11.805 3.631 2.443 2.42 4.071 6.052 4.071 10.893V126.275c0 .404 0 .807.407.807.408 0 .408.404.815.404h3.256v4.841H398.54v-4.841H400.575c.407 0 .814 0 .814-.404 0 0 .407-.403.407-.807v-26.223c0-1.21-.407-2.42-.814-3.63-.407-.808-.814-1.615-1.628-2.018-.814-.403-2.036-.807-3.257-.807s-2.443 0-3.664.404c-1.221.403-2.035.806-2.849 1.21-.815.403-1.629.807-2.443 1.614-.814.403-1.221.806-1.628 1.21v27.837c0 .403 0 .807.407.807s.407.403.814.403H388.769v4.841h-21.982v-4.841h3.256c.407 0 .815 0 .815-.403 0 0 .407-.404.407-.807V93.597c0-.403 0-.807-.407-.807-.408 0-.408-.403-.815-.403h-3.256v-4.438Zm78.975 36.713v1.613c0 .404 0 .807.407.807 0 0 .407.404.814.404H450.24v4.841h-22.797v-4.841H430.7c.407 0 .814 0 .814-.404 0 0 .407-.403.407-.807V94c0-.403 0-.806-.407-.806s-.407-.404-.814-.404H427.443V87.95h18.726v36.713h-.407Zm-248.731 2.42h-1.629c-.407 0-.814 0-.814-.403 0 0-.407-.404-.407-.807v-25.013c0-2.824-.407-4.841-1.628-6.455-.814-1.614-2.443-3.227-4.071-4.034-1.628-1.21-3.664-1.614-6.106-2.018-2.443-.403-4.885-.806-7.735-.806-2.443 0-4.885 0-7.328.403-2.442.403-4.478.807-6.513 1.21-2.036.404-3.257.807-4.885 1.614-1.221.404-2.036.807-2.443.807v10.893h9.363v-5.648c0-.404.407-1.21.815-1.614.814-.807 2.442-1.614 4.07-2.017 1.629-.404 3.257-.404 4.478-.404 2.85 0 5.293.404 6.107 1.614 1.221 1.21 1.628 3.227 1.628 6.455v5.245h-6.92c-2.85 0-5.7 0-8.549.403-2.85.403-5.292 1.21-7.328 2.017-2.035 1.211-3.664 2.421-4.885 4.438-1.221 2.017-2.035 4.034-2.035 7.262 0 2.42.407 4.438 1.628 6.051.814 1.614 2.442 2.824 4.071 4.035 1.628.807 3.664 1.613 5.699 2.017 2.035.403 4.071.807 6.513.807 2.036 0 4.071-.404 5.7-.807 1.628-.404 2.849-.807 4.071-1.614.814-.403 1.628-.807 2.035-1.21v2.42h18.319v-4.841h-1.221Zm-17.912-2.824c-.407.404-1.221.807-1.628 1.211l-2.443 1.21c-.814.403-2.035.403-3.257.403-2.035 0-3.664-.403-4.885-1.613-1.221-1.211-2.035-2.825-2.035-5.649 0-2.017.407-3.631 1.221-4.841.814-1.21 2.035-2.017 3.257-2.42 1.221-.404 2.442-.404 3.664-.404h7.327v11.296c-.407 0-.814.404-1.221.807Zm179.526 2.824h-1.628c-.408 0-.815 0-.815-.403 0 0-.407-.404-.407-.807v-25.013c0-2.824-.407-4.841-1.628-6.455-.814-1.614-2.443-3.227-4.071-4.034-1.628-1.21-3.664-1.614-6.106-2.018-2.443-.403-4.885-.806-7.735-.806-2.443 0-4.885 0-7.328.403-2.442.403-4.478.807-6.513 1.21-2.035.404-3.257.807-4.885 1.614-1.221.404-2.036.807-2.443.807v10.893h8.549v-5.648c0-.404.407-1.21.814-1.614.815-.807 2.443-1.614 4.071-2.017 1.629-.404 3.257-.404 4.478-.404 2.85 0 5.292.404 6.107 1.614 1.221 1.21 1.628 3.227 1.628 6.455v5.245h-6.921c-2.849 0-5.699 0-8.548.403-2.85.403-5.293 1.21-7.328 2.017-2.035 1.211-3.664 2.421-4.885 4.438-1.221 2.017-2.035 4.034-2.035 7.262 0 2.42.407 4.438 1.628 6.051.814 1.614 2.442 2.824 4.071 4.035 1.628.807 3.664 1.613 5.699 2.017 2.035.403 4.071.807 6.513.807 2.036 0 4.071-.404 5.7-.807 1.628-.404 2.849-.807 4.071-1.614.814-.403 1.628-.807 2.035-1.21v2.42h18.319v-4.841h-.407Zm-17.505-2.824c-.407.404-1.221.807-1.628 1.211l-2.443 1.21c-.814.403-2.035.403-3.257.403-2.035 0-3.663-.403-4.885-1.613-1.221-1.211-2.035-2.825-2.035-5.649 0-2.017.407-3.631 1.221-4.841.814-1.21 2.036-2.017 3.257-2.42 1.221-.404 2.442-.404 3.664-.404h6.92v11.296l-.814.807Zm160.8 2.824h-1.628c-.407 0-.815 0-.815-.403 0 0-.407-.404-.407-.807v-25.013c0-2.824-.407-4.841-1.628-6.455-.814-1.614-2.443-3.227-4.071-4.034-1.628-.807-3.664-1.614-6.106-2.018-2.443-.403-4.885-.806-7.735-.806-2.442 0-4.885 0-7.327.403-2.443.403-4.478.807-6.514 1.21-2.035.404-3.257.807-4.885 1.614-1.221.404-2.035.807-2.442.807v10.893h8.548v-5.648c0-.404.407-1.21.815-1.614.814-.807 2.442-1.614 4.07-2.017 1.629-.404 3.257-.404 4.478-.404 2.85 0 5.293.404 6.107 1.614 1.221 1.21 1.628 3.227 1.628 6.455v5.245h-6.92c-2.85 0-5.7.403-8.549.403-2.85.403-5.292 1.21-7.328 2.017-2.035 1.211-3.664 2.421-4.885 4.438-1.221 2.017-2.035 4.034-2.035 7.262 0 2.42.407 4.438 1.628 6.051.814 1.614 2.443 2.824 4.071 4.035 1.628.807 3.664 1.613 5.699 2.017 2.036.403 4.071.807 6.514.807 2.035 0 4.07-.404 5.699-.807 1.628-.404 2.849-.807 4.071-1.614.814-.403 1.628-.807 2.035-1.21v2.017h18.319v-4.841h-.407v.403Zm-17.912-2.824c-.407.404-1.221.807-1.628 1.211l-2.443 1.21c-.814.403-2.035.403-3.256.403-2.036 0-3.664-.403-4.886-1.613-1.221-1.211-2.035-2.825-2.035-5.649 0-2.017.407-3.631 1.221-4.841.814-1.21 2.036-2.017 3.257-2.42 1.221-.404 2.443-.404 3.664-.404h7.327v11.296s-.407.404-1.221.807Zm-230.005 2.824h-1.628c-.407 0-.814 0-.814-.403 0 0-.407-.404-.407-.807V66.163h-18.727v4.842H235.704c.407 0 .814 0 .814.403.407 0 .407.404.407.807v19.364c-.814-1.21-2.442-2.016-4.478-2.823-2.035-.807-4.885-1.21-8.141-1.21-2.85 0-5.7.403-8.549 1.21-2.85.807-5.292 2.42-7.328 4.034-2.035 2.017-3.664 4.438-5.292 7.262-1.221 2.824-2.035 6.455-2.035 10.489 0 4.438.814 8.069 2.035 10.893s3.257 5.245 5.292 6.859c2.036 1.613 4.478 2.824 7.328 3.63 2.849.807 5.292 1.211 7.735 1.211 2.442 0 4.477-.404 6.106-.807 1.628-.404 3.257-1.21 4.478-2.017 1.221-.404 2.035-1.211 2.442-1.614v3.227H254.837v-4.841h-.814Zm-27.275-31.871c6.107 0 9.363 3.63 10.177 5.244v18.559c-1.221 2.017-4.07 6.051-9.77 6.051-6.106 0-9.363-3.631-10.177-5.245-1.221-2.42-1.221-6.455-1.221-9.682 0-3.631.407-7.262 1.628-9.279 2.443-3.631 5.699-5.648 9.363-5.648ZM438.841 65.76c-4.071 0-7.734 3.227-7.734 7.665 0 4.035 3.256 7.666 7.734 7.666 4.071 0 7.735-3.228 7.735-7.666 0-4.438-3.257-7.665-7.735-7.665Z" clip-rule="evenodd"/><path fill="url(#a)" fill-rule="evenodd" d="M115.206 87.949V43.974L76.939 22.19l38.267 65.76Z" clip-rule="evenodd"/><path fill="url(#b)" fill-rule="evenodd" d="M76.94 22.189 115.206 0l38.673 22.189h-76.94Z" clip-rule="evenodd"/><path fill="url(#c)" fill-rule="evenodd" d="M153.88 22.189v43.57l-38.674 22.19 38.674-65.76Z" clip-rule="evenodd"/><path fill="url(#d)" fill-rule="evenodd" d="M76.94 22.189v43.57l38.266 22.19-38.267-65.76Z" clip-rule="evenodd"/><path fill="url(#e)" fill-rule="evenodd" d="M115.206 87.949V43.974L153.88 22.19l-38.674 65.76Z" clip-rule="evenodd"/><path fill="url(#f)" fill-rule="evenodd" d="m153.879 22.189-38.673 21.785L76.939 22.19h76.94Z" clip-rule="evenodd"/><path fill="url(#g)" fill-rule="evenodd" d="m153.879 153.709-38.673 22.189-38.267-22.189h76.94Z" clip-rule="evenodd"/><path fill="url(#h)" fill-rule="evenodd" d="M153.879 153.709v43.974l-38.673 22.189 38.673-66.163Z" clip-rule="evenodd"/><path fill="url(#i)" fill-rule="evenodd" d="M115.206 219.872v-43.974l38.673-22.189-38.673 66.163Z" clip-rule="evenodd"/><path fill="url(#j)" fill-rule="evenodd" d="M76.94 153.709v43.974l38.266 22.189-38.267-66.163Z" clip-rule="evenodd"/><path fill="url(#k)" fill-rule="evenodd" d="M115.206 219.872v-43.974l-38.267-22.189 38.267 66.163Z" clip-rule="evenodd"/><path fill="url(#l)" fill-rule="evenodd" d="m76.94 153.709 38.266-21.786 38.673 21.786h-76.94Z" clip-rule="evenodd"/><path fill="url(#m)" fill-rule="evenodd" d="M38.266 87.949 76.94 65.76l38.267 22.189h-76.94Z" clip-rule="evenodd"/><path fill="url(#n)" fill-rule="evenodd" d="M115.206 87.95v43.974l-38.267 21.785 38.267-65.76Z" clip-rule="evenodd"/><path fill="url(#o)" fill-rule="evenodd" d="M76.94 153.709v-43.974L38.265 87.949l38.673 65.76Z" clip-rule="evenodd"/><path fill="url(#p)" fill-rule="evenodd" d="M38.266 87.95v43.974l38.673 21.785-38.673-65.76Z" clip-rule="evenodd"/><path fill="url(#q)" fill-rule="evenodd" d="M76.94 153.709v-43.974l38.266-21.786-38.267 65.76Z" clip-rule="evenodd"/><path fill="url(#r)" fill-rule="evenodd" d="m115.206 87.95-38.267 21.785-38.673-21.786h76.94Z" clip-rule="evenodd"/><path fill="url(#s)" fill-rule="evenodd" d="m76.94 153.709-38.674 22.189L0 153.709h76.94Z" clip-rule="evenodd"/><path fill="url(#t)" fill-rule="evenodd" d="M0 153.709v-43.974l38.266-21.786L0 153.71Z" clip-rule="evenodd"/><path fill="url(#u)" fill-rule="evenodd" d="m0 153.709 38.266-21.786 38.674 21.786H0Z" clip-rule="evenodd"/><path fill="url(#v)" fill-rule="evenodd" d="M38.266 87.95v43.974L0 153.709l38.266-65.76Z" clip-rule="evenodd"/><path fill="url(#w)" fill-rule="evenodd" d="M76.94 153.709v43.975l-38.674 22.189 38.673-66.164Z" clip-rule="evenodd"/><path fill="url(#x)" fill-rule="evenodd" d="m115.206 219.872-38.267 21.786-38.673-21.786h76.94Z" clip-rule="evenodd"/><path fill="url(#y)" fill-rule="evenodd" d="m38.266 219.872 38.673-22.189 38.267 22.189h-76.94Z" clip-rule="evenodd"/><path fill="url(#z)" fill-rule="evenodd" d="M38.266 219.873v-43.975l38.673-22.189-38.673 66.164Z" clip-rule="evenodd"/><defs><linearGradient id="a" x1="96.058" x2="96.058" y1="109.275" y2="6.42" gradientUnits="userSpaceOnUse"><stop stop-color="#C4007E"/><stop offset="1" stop-color="#471267"/></linearGradient><linearGradient id="b" x1="76.847" x2="153.7" y1="10.997" y2="10.997" gradientUnits="userSpaceOnUse"><stop stop-color="#FFE700"/><stop offset=".018" stop-color="#FFE401"/><stop offset=".344" stop-color="#F8A912"/><stop offset=".623" stop-color="#F47E1E"/><stop offset=".841" stop-color="#F16425"/><stop offset=".969" stop-color="#F05A28"/></linearGradient><linearGradient id="c" x1="165.033" x2="118.871" y1="85.239" y2="69.417" gradientUnits="userSpaceOnUse"><stop stop-color="#008DAC"/><stop offset="1" stop-color="#3AC3DF"/></linearGradient><linearGradient id="d" x1="96.195" x2="94.162" y1="90.873" y2="20.908" gradientUnits="userSpaceOnUse"><stop stop-color="#C4007E"/><stop offset="1" stop-color="#471267"/></linearGradient><linearGradient id="e" x1="134.484" x2="134.484" y1="109.043" y2="33.782" gradientUnits="userSpaceOnUse"><stop stop-color="#008DAC"/><stop offset="1" stop-color="#3AC3DF"/></linearGradient><linearGradient id="f" x1="66.809" x2="85.517" y1="13.061" y2="81.759" gradientUnits="userSpaceOnUse"><stop stop-color="#FFE700"/><stop offset=".018" stop-color="#FFE401"/><stop offset=".344" stop-color="#F8A912"/><stop offset=".623" stop-color="#F47E1E"/><stop offset=".841" stop-color="#F16425"/><stop offset=".969" stop-color="#F05A28"/></linearGradient><linearGradient id="g" x1="79.102" x2="89.369" y1="144.996" y2="189.341" gradientUnits="userSpaceOnUse"><stop offset=".453" stop-color="#5F943D"/><stop offset="1" stop-color="#AFD475"/></linearGradient><linearGradient id="h" x1="165.041" x2="118.889" y1="217.16" y2="201.534" gradientUnits="userSpaceOnUse"><stop stop-color="#C4007E"/><stop offset="1" stop-color="#471267"/></linearGradient><linearGradient id="i" x1="134.484" x2="134.484" y1="240.967" y2="165.689" gradientUnits="userSpaceOnUse"><stop stop-color="#C4007E"/><stop offset="1" stop-color="#471267"/></linearGradient><linearGradient id="j" x1="59.437" x2="152.814" y1="152.512" y2="194.445" gradientUnits="userSpaceOnUse"><stop stop-color="#FFE700"/><stop offset=".018" stop-color="#FFE401"/><stop offset=".344" stop-color="#F8A912"/><stop offset=".623" stop-color="#F47E1E"/><stop offset=".841" stop-color="#F16425"/><stop offset=".969" stop-color="#F05A28"/></linearGradient><linearGradient id="k" x1="44.036" x2="152.366" y1="152.434" y2="175.547" gradientUnits="userSpaceOnUse"><stop stop-color="#FFE700"/><stop offset=".018" stop-color="#FFE401"/><stop offset=".344" stop-color="#F8A912"/><stop offset=".623" stop-color="#F47E1E"/><stop offset=".841" stop-color="#F16425"/><stop offset=".969" stop-color="#F05A28"/></linearGradient><linearGradient id="l" x1="57.192" x2="142.952" y1="141.592" y2="177.784" gradientUnits="userSpaceOnUse"><stop offset=".453" stop-color="#5F943D"/><stop offset="1" stop-color="#AFD475"/></linearGradient><linearGradient id="m" x1="38.422" x2="115.269" y1="76.947" y2="76.947" gradientUnits="userSpaceOnUse"><stop stop-color="#FFE700"/><stop offset=".018" stop-color="#FFE401"/><stop offset=".344" stop-color="#F8A912"/><stop offset=".623" stop-color="#F47E1E"/><stop offset=".841" stop-color="#F16425"/><stop offset=".969" stop-color="#F05A28"/></linearGradient><linearGradient id="n" x1="126.612" x2="80.479" y1="151.199" y2="135.717" gradientUnits="userSpaceOnUse"><stop stop-color="#008DAC"/><stop offset="1" stop-color="#3AC3DF"/></linearGradient><linearGradient id="o" x1="57.635" x2="57.635" y1="175.241" y2="72.359" gradientUnits="userSpaceOnUse"><stop stop-color="#C4007E"/><stop offset="1" stop-color="#471267"/></linearGradient><linearGradient id="p" x1="57.635" x2="57.635" y1="146.208" y2="66.137" gradientUnits="userSpaceOnUse"><stop stop-color="#C4007E"/><stop offset="1" stop-color="#471267"/></linearGradient><linearGradient id="q" x1="96.058" x2="96.058" y1="175.01" y2="99.729" gradientUnits="userSpaceOnUse"><stop stop-color="#008DAC"/><stop offset="1" stop-color="#3AC3DF"/></linearGradient><linearGradient id="r" x1="26" x2="49.349" y1="82.294" y2="151.471" gradientUnits="userSpaceOnUse"><stop stop-color="#FFE700"/><stop offset=".018" stop-color="#FFE401"/><stop offset=".344" stop-color="#F8A912"/><stop offset=".623" stop-color="#F47E1E"/><stop offset=".841" stop-color="#F16425"/><stop offset=".969" stop-color="#F05A28"/></linearGradient><linearGradient id="s" x1="-25.306" x2="44.396" y1="157.789" y2="229.535" gradientUnits="userSpaceOnUse"><stop stop-color="#FFE700"/><stop offset=".018" stop-color="#FFE401"/><stop offset=".344" stop-color="#F8A912"/><stop offset=".623" stop-color="#F47E1E"/><stop offset=".841" stop-color="#F16425"/><stop offset=".969" stop-color="#F05A28"/></linearGradient><linearGradient id="t" x1="19.211" x2="19.211" y1="175.01" y2="99.729" gradientUnits="userSpaceOnUse"><stop stop-color="#008DAC"/><stop offset="1" stop-color="#3AC3DF"/></linearGradient><linearGradient id="u" x1="0" x2="76.848" y1="142.907" y2="142.907" gradientUnits="userSpaceOnUse"><stop stop-color="#FFE700"/><stop offset=".018" stop-color="#FFE401"/><stop offset=".344" stop-color="#F8A912"/><stop offset=".623" stop-color="#F47E1E"/><stop offset=".841" stop-color="#F16425"/><stop offset=".969" stop-color="#F05A28"/></linearGradient><linearGradient id="v" x1="49.766" x2="3.633" y1="151.199" y2="135.717" gradientUnits="userSpaceOnUse"><stop stop-color="#008DAC"/><stop offset="1" stop-color="#3AC3DF"/></linearGradient><linearGradient id="w" x1="57.635" x2="57.635" y1="216.553" y2="146.083" gradientUnits="userSpaceOnUse"><stop stop-color="#C4007E"/><stop offset="1" stop-color="#471267"/></linearGradient><linearGradient id="x" x1="26.041" x2="34.447" y1="191.161" y2="250.589" gradientUnits="userSpaceOnUse"><stop stop-color="#008DAC"/><stop offset="1" stop-color="#3AC3DF"/></linearGradient><linearGradient id="y" x1="116.603" x2="107.847" y1="196.979" y2="257.556" gradientUnits="userSpaceOnUse"><stop stop-color="#008DAC"/><stop offset="1" stop-color="#3AC3DF"/></linearGradient><linearGradient id="z" x1="74.38" x2="20.309" y1="203.472" y2="185.165" gradientUnits="userSpaceOnUse"><stop stop-color="#C4007E"/><stop offset="1" stop-color="#471267"/></linearGradient></defs></svg>