<svg xmlns="http://www.w3.org/2000/svg" id="Layer_2" viewBox="0 0 422 137.38"><defs><style>.cls-1,.cls-2{stroke-width:.74px;}.cls-1,.cls-2,.cls-3,.cls-4{fill:none;}.cls-1,.cls-3{stroke:#ffe400;}.cls-5{fill:#fff;}.cls-6{fill:#ffe400;}.cls-2{stroke:#009580;}.cls-3{stroke-width:.68px;}.cls-4{stroke:#e32118;stroke-width:1.86px;}.cls-7{fill:#009580;}.cls-8{fill:#e32118;}</style></defs><g id="Layer_1-2"><g><path class="cls-8" d="M91.8,5.9c-.09-.02-9.82-1-43.23-1h-.49c-30.36,0-41.03,.58-43.33,1-1.07,.18-1.73,.96-1.87,1.89,0,0-.12,29.01-.2,48.48,4.31-.19,17.1-.61,45.94-.61s40.87,.41,45.25,.6l-.21-48.6c-.03-.45-.26-1.54-1.86-1.78"/><g><path class="cls-4" d="M91.8,5.9c-.09-.02-9.82-1-43.23-1h-.49c-30.36,0-41.03,.58-43.33,1-1.07,.18-1.73,.96-1.87,1.89,0,0-.12,29.01-.2,48.48,4.31-.19,17.1-.61,45.94-.61s40.87,.41,45.25,.6l-.21-48.6c-.03-.45-.26-1.54-1.86-1.78Z"/><path class="cls-5" d="M48.3,124.43s-30.15-15.43-37.78-27.14c0,0-11-12.06-8.87-31.39v-8.16s39.55-.71,47-.71c0,0,40.26,.54,46.29,.54v10.99s2.48,17.74-9.76,29.79c0,0-12.59,14.37-36.89,26.08"/></g><path d="M152.36,24.96V3.71h-6.61V27.86c0,2.02-.05,3.71-.33,4.75-.82,3.5-3.22,5.19-7.75,5.19-4.21,0-6.5-1.58-7.43-4.7-.33-1.04-.44-2.73-.44-4.75V3.71h-7.8V25.67c0,5.35,.43,9.07,2.07,11.58,2.07,3.22,6.17,5.63,13.27,5.63,7.81,0,11.58-3.17,13.33-6.66,1.09-2.13,1.7-5.03,1.7-11.25"/><path d="M183.37,42.28V25.4c0-1.26,0-3.5-.44-5.47-.65-2.84-2.95-6.23-8.79-6.23s-8.36,3.44-8.36,3.44v-2.84h-7.43v27.96h7.65V19.56s1.75-.93,4.21-.93c2.84,0,4.7,1.09,5.24,3.71,.22,1.04,.22,2.52,.22,3.93v16h7.7m14.53-36.05c0-2.35-1.75-3.93-4.37-3.93-2.79,0-4.54,1.59-4.54,4.1,0,2.35,1.75,3.93,4.37,3.93,2.79,0,4.54-1.58,4.54-4.1m-.6,8.09h-7.65v27.96h7.65V14.31Zm30.75,0h-6.78l-5.41,18.08c-.38,1.36-.98,3.45-.98,3.45,0,0-.22-1.21-.82-3.34l-5.36-18.19h-8.25l9.84,28.02h7.43l10.32-28.02Zm26.33,14.48v-.44c0-3.06-.16-6.78-1.69-9.51-1.75-3.06-4.64-5.08-10.16-5.08-11.37,0-13.33,9.34-13.33,14.59,0,11.2,6.88,14.36,14.53,14.36,6.56,0,9.61-1.63,9.61-1.63l-1.47-4.21s-2.13,1.26-5.96,1.26c-5.41,0-8.96-3.34-8.96-8.8v-.54h17.42Zm-7.59-3.88h-9.78c0-.5,0-1.91,.33-3.28,.6-2.51,1.91-4.15,4.65-4.15,3.27,0,4.8,2.08,4.8,6.23v1.2Zm30.1-10.32c-.82-.33-1.91-.71-3.66-.71-4.76,0-6.72,4.15-6.72,4.15v-3.71h-7.43v27.96h7.65V20.32s1.47-.98,4.1-.98,4.1,1.04,4.53,1.36l1.53-6.12Z"/><path d="M297.69,33.98c0-3.77-1.85-5.9-5.24-7.65l-3.98-2.02c-2.24-1.15-3.28-1.69-3.28-3.44,0-2.13,2.02-2.73,4.31-2.73,3.49,0,6.06,1.48,6.06,1.48l1.53-4.37s-3.06-1.48-8.58-1.48c-6.23,0-10.05,2.67-10.05,7.98,0,3.93,1.92,5.96,5.57,7.98l4.1,2.24c1.86,1.04,2.62,1.53,2.62,3.17,0,2.08-1.64,3.12-4.65,3.12-4.59,0-7.1-1.53-7.1-1.53l-1.53,4.37s3.01,1.63,9.45,1.63c5.79,0,10.76-2.35,10.76-8.74m13.34-27.75c0-2.35-1.75-3.93-4.37-3.93-2.79,0-4.54,1.59-4.54,4.1,0,2.35,1.75,3.93,4.37,3.93,2.79,0,4.54-1.58,4.54-4.1m-.6,8.09h-7.65v27.96h7.65V14.31Zm23.96,27.09l-1.26-4.2s-1.42,.76-3.28,.76c-3.6,0-3.93-2.3-3.93-5.07v-14.37h8.25v-4.15h-8.25V7.81h-4.97l-.05,.49c-.49,2.84-2.51,5.52-5.35,6.44l-.77,.28v3.5h3.5v13.87c0,2.13,.11,4.37,.54,5.68,1.2,3.49,3.99,4.53,8.52,4.53,3.76,0,6.28-.93,7.04-1.2"/><path d="M363.31,14.31h-6.78l-5.13,18.24c-.44,1.58-.93,3.39-.93,3.39,0,0-.17-1.15-.87-3.5l-5.52-18.13h-8.3l11.2,29.33-.93,2.57c-.93,2.62-2.08,3.87-4.43,3.87-1.42,0-3.12-.66-3.12-.66l-.76,4.48s1.64,.71,4.76,.71c4.53,0,7.32-1.91,9.23-7.38l11.58-32.94"/><path d="M400.91,27.86c0-8.74-4.75-14.15-13.49-14.15-10.22,0-14.09,7.26-14.09,15.08,0,8.74,4.81,14.15,13.54,14.15,10.21,0,14.04-7.27,14.04-15.08m-7.92,.49c0,6.72-1.47,10.1-5.79,10.1s-5.95-3.77-5.95-10.22,1.54-10.05,5.85-10.05,5.9,3.71,5.9,10.16M422,.93s-1.91-.93-5.68-.93c-5.24,0-8.08,2.08-9.29,5.95-.6,1.97-.55,5.36-.55,6.94v1.47h-3.5v4.15h3.5v23.76h7.54V18.52h5.73v-4.15h-5.73v-4.04c0-2.07,.05-3.44,.55-4.32,.54-.98,1.47-1.64,3.28-1.64s2.84,.71,2.84,.71l1.31-4.15Z"/><path d="M316.03,56.61c-4.6,0-7.45,2.5-7.45,6.52,0,3.75,2.79,6.18,7.11,6.18,4.59,0,7.44-2.49,7.44-6.52,0-3.75-2.79-6.17-7.11-6.17"/><path d="M190.04,74.9c-18.87,0-20.91,15.57-20.91,22.27,0,17.98,12.24,21.75,22.51,21.75,9.18,0,14.08-1.82,15.37-2.39-.23-.71-1.83-5.5-2.12-6.38-1.2,.54-4.4,1.75-9.09,1.75-9.54,0-13.81-6.21-13.81-12.37v-1.1h26.76v-.25c0-4.8-.28-10.85-2.48-15-3.01-5.65-8.17-8.28-16.23-8.28m6.35,17.7h-14.49v-.51c0-1.09,0-3.1,.35-5.01,.84-4.5,3.11-6.68,6.94-6.68,4.91,0,7.2,2.96,7.2,9.32v2.88Z"/><path d="M150.7,92.69c.49-.13,12.07-3.47,12.07-17.2,0-11.14-9.42-14.3-12.31-15-3.3-.78-8.44-1.17-15.71-1.17-5.93,0-11.18,.3-12.7,.39v58.53h12.27v-23.63h3.57s16.38,23.2,16.69,23.63h14.78c-1.18-1.54-19.39-25.35-19.39-25.35l.73-.2m-7.27-4.18c-1.38,.35-2.18,.44-5.12,.44l-3.99-.1v-22.86l.43-.07s1.09-.18,3.72-.18c7.7,0,11.44,3.74,11.44,11.43,0,7.16-3.35,10.56-6.48,11.34"/><path d="M233.22,74.81c-8.8,0-14.29,1.79-15.77,2.33,.26,.76,1.98,5.68,2.28,6.54,1.28-.57,4.89-1.93,10.03-1.93,2.56,0,6.14,.38,7.57,3.6,.5,1.07,.73,2.58,.73,4.79v2.71l-.02,.53-6.25-.28c-4.83,0-9.87,.23-13.67,2.96-3.2,2.3-4.7,5.56-4.7,10.26,0,7.77,5.05,12.6,13.2,12.6s10.81-4.3,10.83-4.34l.94-1.39v5.06h11.76v-25.91c0-3.57-.08-7.26-1.06-9.81-1.99-5.19-7.18-7.72-15.87-7.72m4.83,36.71l-.26,.15c-.06,.04-1.51,.83-4.74,.83-2.72,0-7.28-.9-7.28-6.87,0-1.09,.19-3.8,1.85-5.37,1.53-1.44,3.49-2.08,6.37-2.08l3.62,.09h.45v13.26Z"/><rect x="309.51" y="75.75" width="12.69" height="42.5"/><path d="M277.33,75.07c-11.79,0-19.72,9.15-19.72,22.77s6.26,21.08,17.18,21.08c8.46,0,11.38-4.77,11.41-4.82l.95-1.61v5.76h12.27V53.73h-12.69v23.7s-.82-.6-.82-.6c-.03-.02-2.44-1.76-8.59-1.76m9.4,6.84v28.09l-.26,.15c-.08,.05-2.1,1.16-5.42,1.16-6.62,0-10.42-5.25-10.42-14.4,0-10.4,3.99-15.67,11.86-15.67,2.44,0,3.84,.52,3.9,.54l.33,.12Z"/><path d="M357.94,74.81c-8.97,0-12.4,5.14-12.43,5.19l-.95,1.45v-5.7h-12.27v42.5h12.69v-34.43l.27-.15c.09-.05,2.35-1.24,5.82-1.24,4.26,0,6.82,1.75,7.62,5.24,.31,1.58,.35,4.21,.35,5.26v25.32h12.78v-25.82c0-1.88,0-5.37-.67-8.36-.63-2.78-3.18-9.25-13.22-9.25"/><g><path d="M396.64,74.9c-12.46,0-18.03,7.19-18.03,14.31,0,11.09,9.5,12.64,9.89,12.7l1.89,.28-1.78,.7c-.26,.11-6.36,2.59-6.36,8.84,0,4.33,3.2,5.82,3.34,5.88l1.74,.79-1.9,.19c-.37,.04-9.02,.99-9.02,8.64,0,8.84,11.14,10.16,17.77,10.16,5.3,0,9.68-.6,13.39-1.83,10.82-3.61,12.43-10.95,12.43-15.01,0-9.38-7.23-10.58-13.54-10.58l-5.98,.11-3.41,.07c-1.75,0-5,0-5-3.73,0-2.07,1.21-3.21,1.27-3.26l.2-.15,4.13,.27c11.08,0,17.43-4.9,17.43-13.46,0-4.37-2.44-6.81-2.46-6.83l-.9-.88h8.71v-6.26c-.97,0-16.82-.02-16.82-.02-1.22-.34-3.76-.92-6.97-.92m3.56,44.45c3.93,0,6.79,0,8.29,1.5,.69,.7,1.03,1.65,1.03,2.91,0,3.36-2.12,7.37-12.19,7.37-4.86,0-10.42-.73-10.42-6.36,0-3.86,3.39-5.33,3.53-5.38l.1-.04h9.67Zm.53-22.08h-.02c-1.02,.61-2.22,.92-3.56,.92-4.31,0-6.69-3.18-6.69-8.97,0-2.87,.35-6.38,3.04-8.15,1.08-.65,2.37-1,3.65-1,4.31,0,6.7,3.16,6.7,8.89,0,2.94-.35,6.55-3.12,8.31"/><path d="M96.57,73.41l-.3-66.03c-.12-2.04-1.77-3.69-3.87-4.01-.29-.06-10.07-1.04-43.85-1.04h-.5C17.51,2.34,6.44,2.94,4.19,3.37,2.19,3.71,.36,5.48,.26,7.53c-.03,.21-.24,65.95-.24,65.95-.02,.31-.24,4.6,1.45,10.22,1.96,6.51,6.37,15.04,16.74,23.16,17.21,13.47,29.13,18.61,29.61,18.83,.28,.12,.35,.16,.45,.16s.17-.02,.51-.17c.47-.23,12.29-5.48,29.49-18.82,10.37-8.03,14.89-16.52,16.85-23.05,1.71-5.68,1.48-10.05,1.45-10.4M2.86,7.82c.14-.94,.8-1.72,1.87-1.89,2.3-.43,12.97-1.01,43.33-1.01h.5c33.41,0,42.95,.98,43.03,1,1.61,.24,2.03,1.52,2.06,1.97l.22,48.41c-4.39-.19-16.98-.6-45.25-.6s-41.64,.42-45.95,.61c.08-19.48,.19-48.48,.19-48.48M93.84,75.75c-.11-.03-.2-.08-.3-.12,.1,.04,.2,.09,.3,.12h0Zm-56.28-17.83h.02c-.07,.1-.15,.2-.23,.29,.07-.09,.15-.18,.21-.29m48.11,37.94c-.45-.91-1.34-1.47-2.35-1.47-1.3,0-2.42,.98-2.59,2.29-.03,.17-.1,.3-.17,.3s-.15-.13-.17-.3c-.18-1.3-1.29-2.29-2.6-2.29s-2.41,.98-2.58,2.29c-.04,.17-.11,.3-.18,.3-.07,0-.14-.13-.16-.3-.19-1.3-1.3-2.29-2.6-2.29s-2.42,.98-2.58,2.29c-.03,.17-.1,.3-.17,.3s-.15-.13-.16-.3c-.18-1.3-1.29-2.29-2.6-2.29s-2.42,.98-2.59,2.29c-.03,.18-.11,.3-.17,.3-.07,0-.14-.13-.16-.3-.18-1.3-1.29-2.29-2.6-2.29-1.45,0-2.62,1.18-2.62,2.62,0,1.31,.98,2.41,2.28,2.59,.19,.04,.3,.12,.3,.17,0,.07-.13,.14-.3,.17-1.3,.18-2.28,1.29-2.28,2.6s.98,2.42,2.28,2.59c.19,.03,.3,.11,.3,.17,0,.08-.13,.14-.3,.17-1.3,.18-2.28,1.29-2.28,2.6s.98,2.42,2.28,2.59c.19,.04,.3,.12,.3,.18,0,.07-.13,.14-.3,.16-1.3,.18-2.28,1.29-2.28,2.6,0,1.18,.79,2.21,1.93,2.52-.96,.65-1.53,1.05-1.53,1.05-5.88,3.6-9.73,5.4-10.76,5.87-1.03-.45-4.82-2.2-10.63-5.73,0,0-.66-.44-1.73-1.16,1.21-.27,2.06-1.33,2.06-2.55,0-1.3-.98-2.41-2.28-2.58-.17-.03-.31-.11-.31-.17,0-.06,.11-.14,.31-.16,1.3-.18,2.28-1.29,2.28-2.6s-.98-2.42-2.28-2.59c-.18-.03-.31-.1-.31-.17,0-.06,.11-.14,.31-.16,1.3-.18,2.28-1.29,2.28-2.6s-.98-2.42-2.28-2.59c-.18-.03-.31-.1-.31-.17,0-.06,.11-.14,.31-.16,1.3-.19,2.28-1.29,2.28-2.6,0-1.44-1.17-2.62-2.62-2.62-1.3,0-2.42,.98-2.58,2.29-.03,.17-.1,.3-.17,.3s-.14-.12-.16-.3c-.19-1.3-1.3-2.29-2.6-2.29s-2.42,.98-2.59,2.29c-.03,.17-.1,.3-.17,.3s-.14-.13-.16-.3c-.18-1.3-1.29-2.29-2.6-2.29s-2.42,.98-2.59,2.29c-.03,.17-.1,.3-.17,.3s-.14-.13-.17-.3c-.18-1.3-1.29-2.29-2.59-2.29s-2.42,.98-2.59,2.29c-.03,.17-.1,.3-.17,.3s-.14-.13-.16-.3c-.19-1.3-1.3-2.29-2.6-2.29-1,0-1.9,.57-2.35,1.48-6.21-8.09-7.82-15.72-8.2-19.61v-.47s0-.01,0-.01c.1-.03,.19-.08,.29-.11,.94-.3,1.63-1.09,1.76-2.07h0c.02-.18,.09-.31,.16-.31,.07,0,.14,.13,.16,.31,.18,1.3,1.29,2.28,2.6,2.28s2.42-.98,2.59-2.28c.04-.18,.1-.31,.18-.31,.07,0,.14,.13,.16,.31,.18,1.3,1.29,2.28,2.6,2.28s2.42-.98,2.59-2.28c.03-.18,.1-.31,.17-.31,.08,0,.15,.13,.17,.31,.18,1.3,1.3,2.28,2.6,2.28s2.42-.98,2.59-2.28c.03-.18,.1-.31,.17-.31s.14,.13,.16,.31c.18,1.3,1.29,2.28,2.6,2.28s2.42-.98,2.59-2.28c.03-.18,.1-.31,.17-.31s.14,.13,.17,.31c.18,1.3,1.29,2.28,2.6,2.28s2.42-.98,2.59-2.28c.03-.2,.11-.31,.17-.31,.08,0,.15,.13,.16,.31,.19,1.3,1.3,2.28,2.6,2.28,1.45,0,2.63-1.18,2.63-2.62,0-1.31-.98-2.42-2.28-2.59-.19-.03-.31-.11-.31-.17,0-.07,.13-.14,.31-.16,1.3-.18,2.28-1.3,2.28-2.6s-.98-2.42-2.28-2.59c-.19-.04-.31-.11-.31-.17,0-.08,.13-.15,.31-.17,1.3-.18,2.28-1.29,2.28-2.6s-.98-2.41-2.28-2.59c-.19-.03-.31-.11-.31-.17,0-.07,.13-.14,.31-.16,.83-.12,1.56-.62,1.96-1.37,0,0-.03,0-.04,0h0s.03,0,.03,0c4.99-.08,8.93-.13,10.32-.13,1.48,0,5.7,.06,11.02,.13h.02c.4,.75,1.14,1.25,1.96,1.35,.17,.04,.3,.11,.3,.18,0,.06-.12,.14-.3,.16-1.31,.19-2.29,1.29-2.29,2.6s.98,2.42,2.29,2.58c.17,.04,.3,.11,.3,.18,0,.06-.12,.14-.3,.16-1.31,.18-2.29,1.3-2.29,2.6s.98,2.42,2.29,2.58c.17,.04,.3,.11,.3,.18,0,.06-.12,.15-.3,.17-1.31,.17-2.29,1.29-2.29,2.6,0,1.44,1.17,2.62,2.62,2.62,1.31,0,2.41-.98,2.59-2.28,.03-.18,.09-.31,.17-.31,.06,0,.14,.11,.16,.31,.18,1.3,1.29,2.28,2.59,2.28s2.43-.98,2.59-2.28c.03-.18,.11-.31,.17-.31,.08,0,.14,.13,.16,.31,.18,1.3,1.3,2.28,2.6,2.28s2.42-.98,2.59-2.28c.03-.18,.1-.31,.17-.31s.15,.13,.16,.31c.18,1.3,1.29,2.28,2.6,2.28s2.42-.98,2.59-2.28c.03-.18,.1-.31,.17-.31s.14,.13,.16,.31c.18,1.3,1.29,2.28,2.59,2.28s2.42-.98,2.59-2.28c.03-.18,.11-.31,.18-.31s.14,.13,.16,.31c.18,1.3,1.3,2.28,2.6,2.28s2.42-.98,2.59-2.28c.03-.18,.1-.31,.17-.31s.14,.13,.16,.31c.16,1.09,.96,1.96,2.03,2.21v.42c-.38,3.91-1.96,11.57-8.16,19.65"/></g><path class="cls-6" d="M48.25,80.35c-1.37,0-2.49,1.1-2.49,2.47s1.11,2.47,2.49,2.47,2.5-1.11,2.5-2.47-1.12-2.47-2.5-2.47"/><path class="cls-1" d="M48.25,80.35c-1.37,0-2.49,1.1-2.49,2.47s1.11,2.47,2.49,2.47,2.5-1.11,2.5-2.47-1.12-2.47-2.5-2.47Z"/><path class="cls-8" d="M57.74,80.96c-.49-.27-.88-.31-1.3-.16,0,0-.65,.3-.65,.3l-.49,.25s-1.13,.46-1.13,.46c-1.84,.66-2.35,.44-2.47,.14l.02-.29c.12-.27,.57-.69,1.98-1.2l1.16-.38,.54-.13,.68-.19c.41-.15,.7-.44,.9-.95,.69-1.71-.72-3.5-2.27-4.6-1.74-1.23-4.11-1.92-5.28-.87-.41,.37-.6,.73-.6,1.17l.06,.69,.06,.56,.04,1.22c0,2.07-.45,2.38-.72,2.38l-.27-.11c-.44-.43-.44-1.78-.44-2.23,0-.04,.05-1.26,.05-1.26l.06-.56,.06-.7c0-.44-.18-.81-.59-1.17-1.17-1.06-3.54-.36-5.28,.87-1.55,1.1-2.97,2.89-2.27,4.6,.21,.51,.48,.81,.89,.96,0,0,.7,.19,.7,.19l.53,.12s1.16,.38,1.16,.38c1.14,.41,1.79,.81,1.97,1.18l.02,.3c-.1,.25-.54,.56-2.48-.14,0,0-1.14-.47-1.14-.47,0,0-.5-.25-.5-.25l-.64-.29c-.42-.16-.81-.11-1.3,.16-1.3,.68-1.59,2.32-.88,4.99,.53,2.07,1.9,4.12,3.48,4.06,.56-.01,.93-.18,1.21-.52l.4-.56,.32-.48s.74-.96,.74-.96c.36-.42,1.26-1.5,1.87-1.56l.25,.08s.17,.26,.17,.26c.07,.51-.59,1.38-.87,1.76l-.11,.15s-.76,.94-.76,.94c0,0-.39,.42-.39,.42l-.46,.51c-.27,.36-.34,.75-.24,1.3,.3,1.55,2.61,2.42,4.75,2.49,1.89,.06,4.1-.52,4.58-2.31,.14-.54,.1-.94-.14-1.31,0,0-.42-.55-.42-.55l-.36-.44-.7-1-.19-.28c-.3-.42-.93-1.31-.84-1.77l.14-.2s.29-.1,.29-.1c.26,.02,.85,.26,1.98,1.61,0,0,.76,.96,.76,.96-.01,0,.3,.46,.3,.46l.4,.57c.29,.34,.66,.5,1.22,.52,1.57,.05,2.94-2,3.48-4.06,.22-.82,.33-1.57,.33-2.23,0-1.33-.45-2.28-1.33-2.75m-9.49,4.33c-1.37,0-2.49-1.11-2.49-2.47s1.11-2.47,2.49-2.47,2.5,1.1,2.5,2.47-1.12,2.47-2.5,2.47"/><path class="cls-7" d="M56.35,79.93c-.42,.16-.43,.11-1.14,.32-.41,.11-1.18,.39-1.54,.51-.91,.33-1.51,.69-1.4,.98,.1,.29,.76,.14,1.66-.2,.36-.13,1.13-.42,1.52-.6,.68-.3,.66-.33,1.07-.49,.71-.26,1.32-.07,1.7,.17,.49,.31,.6,.36,.86,.83,2.21-2.42,3.38-2.82,3.35-2.91-.03-.08-1.65,.18-4.8-.4-.02,.32,0,.24-.1,.56-.13,.42-.48,.97-1.18,1.22"/><path class="cls-2" d="M56.35,79.93c-.42,.16-.43,.11-1.14,.32-.41,.11-1.18,.39-1.54,.51-.91,.33-1.51,.69-1.4,.98,.1,.29,.76,.14,1.66-.2,.36-.13,1.13-.42,1.52-.6,.68-.3,.66-.33,1.07-.49,.71-.26,1.32-.07,1.7,.17,.49,.31,.6,.36,.86,.83,2.21-2.42,3.38-2.82,3.35-2.91-.03-.08-1.65,.18-4.8-.4-.02,.32,0,.24-.1,.56-.13,.42-.48,.97-1.18,1.22Z"/><path class="cls-7" d="M48,74.29c0,.44-.04,.43-.1,1.17-.03,.43-.04,1.25-.04,1.63,0,.97,.07,1.64,.38,1.62,.32,.01,.44-.65,.44-1.62,0-.38,0-1.2-.04-1.63-.06-.75-.09-.74-.09-1.18,0-.76,.39-1.27,.74-1.54,.37-.29,.4-.34,.84-.44-1.57-2.73-1.74-3.81-1.82-3.81-.07,0-.28,1.19-1.72,3.91,.36,.11,.33,.11,.65,.35,.35,.27,.75,.79,.75,1.54"/><path class="cls-2" d="M48,74.29c0,.44-.04,.43-.1,1.17-.03,.43-.04,1.25-.04,1.63,0,.97,.07,1.64,.38,1.62,.32,.01,.44-.65,.44-1.62,0-.38,0-1.2-.04-1.63-.06-.75-.09-.74-.09-1.18,0-.76,.39-1.27,.74-1.54,.37-.29,.4-.34,.84-.44-1.57-2.73-1.74-3.81-1.82-3.81-.07,0-.28,1.19-1.72,3.91,.36,.11,.33,.11,.65,.35,.35,.27,.75,.79,.75,1.54Z"/><path class="cls-7" d="M55.52,90.49c-.44,.02-1.07-.11-1.56-.69-.29-.34-.25-.37-.69-.96-.25-.35-.77-.98-1.01-1.28-.62-.74-1.33-1.4-1.55-1.19-.27,.16,.16,.72,.69,1.54,.2,.32,.66,1,.92,1.34,.45,.6,.48,.57,.72,.94,.41,.63,.36,1.27,.21,1.69-.14,.41-.13,.46-.39,.78,2.92,1.29,3.83,2.19,3.91,2.13,.07-.04-.48-1.27-.91-4.39-.22,.05-.1,.08-.33,.08"/><path class="cls-2" d="M55.52,90.49c-.44,.02-1.07-.11-1.56-.69-.29-.34-.25-.37-.69-.96-.25-.35-.77-.98-1.01-1.28-.62-.74-1.33-1.4-1.55-1.19-.27,.16,.16,.72,.69,1.54,.2,.32,.66,1,.92,1.34,.45,.6,.48,.57,.72,.94,.41,.63,.36,1.27,.21,1.69-.14,.41-.13,.46-.39,.78,2.92,1.29,3.83,2.19,3.91,2.13,.07-.04-.48-1.27-.91-4.39-.22,.05-.1,.08-.33,.08Z"/><path class="cls-7" d="M44.21,89.13c.28-.32,.78-.97,1.01-1.28,.58-.77,.79-1.23,.54-1.42-.24-.2-.75,.39-1.37,1.13-.25,.29-.77,.93-1.02,1.28-.44,.6-.4,.62-.68,.96-.48,.57-1.12,.71-1.55,.69-.26,0-.14,.03-.38-.04-.32,3.18-.84,4.3-.77,4.35,.08,.06,.89-.64,3.68-1.98-.37-.39-.42-.61-.56-1.13-.11-.43-.12-1.07,.33-1.68,.26-.36,.3-.32,.79-.88"/><path class="cls-2" d="M44.21,89.13c.28-.32,.78-.97,1.01-1.28,.58-.77,.79-1.23,.54-1.42-.24-.2-.75,.39-1.37,1.13-.25,.29-.77,.93-1.02,1.28-.44,.6-.4,.62-.68,.96-.48,.57-1.12,.71-1.55,.69-.26,0-.14,.03-.38-.04-.32,3.18-.84,4.3-.77,4.35,.08,.06,.89-.64,3.68-1.98-.37-.39-.42-.61-.56-1.13-.11-.43-.12-1.07,.33-1.68,.26-.36,.3-.32,.79-.88Z"/><path class="cls-7" d="M40,80.45c.42,.15,.4,.19,1.08,.49,.39,.17,1.15,.46,1.51,.59,.91,.33,1.61,.45,1.7,.15,.12-.29-.49-.59-1.4-.92-.36-.13-1.14-.4-1.55-.52-.72-.21-.73-.16-1.14-.31-.71-.25-1.05-.81-1.18-1.23-.13-.39-.15-.48-.14-.86-3.14,.65-4.33,.5-4.35,.59-.03,.09,.87,.53,3.09,2.81,.24-.39,.27-.36,.68-.62,.38-.23,1-.43,1.7-.17"/><path class="cls-2" d="M40,80.45c.42,.15,.4,.19,1.08,.49,.39,.17,1.15,.46,1.51,.59,.91,.33,1.61,.45,1.7,.15,.12-.29-.49-.59-1.4-.92-.36-.13-1.14-.4-1.55-.52-.72-.21-.73-.16-1.14-.31-.71-.25-1.05-.81-1.18-1.23-.13-.39-.15-.48-.14-.86-3.14,.65-4.33,.5-4.35,.59-.03,.09,.87,.53,3.09,2.81,.24-.39,.27-.36,.68-.62,.38-.23,1-.43,1.7-.17Z"/><path d="M57.69,77.27c-.14-1.46-1.17-2.86-2.52-3.84-1.25-.91-2.79-1.46-4.12-1.33-1-1.53-2.65-5.83-2.73-5.83s-1.39,4.04-2.57,5.84c-1.39-.21-3.03,.34-4.37,1.32-1.26,.92-2.25,2.23-2.48,3.61-1.8,.47-6.58,.65-6.61,.74-.03,.08,3.44,2.6,4.82,4.27-.49,1.18-.39,2.72-.03,4.14,.43,1.74,1.47,3.34,2.84,3.99-.08,1.88-1.41,6.49-1.34,6.54,.06,.05,3.58-2.54,5.68-3.34,1,.81,2.47,1.26,3.94,1.28,1.54,.02,3.07-.39,4.08-1.31,1.75,.67,5.79,3.34,5.85,3.29,.07-.06-1.33-4.2-1.45-6.42,1.41-.63,2.46-2.25,2.91-4.02,.33-1.34,.4-2.75-.02-3.89,1.17-1.42,4.85-4.3,4.83-4.38-.03-.09-4.51-.08-6.7-.66m1.39,4.2c-.26-.47-.37-.53-.86-.83-.37-.24-.99-.44-1.7-.17-.42,.16-.39,.19-1.07,.49-.39,.17-1.15,.47-1.52,.6-.91,.33-1.56,.49-1.66,.2-.12-.29,.49-.65,1.4-.98,.36-.12,1.13-.4,1.54-.51,.72-.21,.72-.16,1.14-.32,.7-.25,1.05-.8,1.18-1.22,.11-.32,.08-.24,.1-.56,3.15,.58,4.78,.33,4.8,.4,.02,.09-1.14,.49-3.35,2.91m-10.75-12.98c.08,0,.24,1.08,1.82,3.81-.44,.1-.48,.16-.84,.44-.35,.27-.74,.78-.74,1.54,0,.44,.04,.43,.09,1.18,.03,.42,.04,1.25,.04,1.63,0,.97-.13,1.63-.44,1.62-.31,.01-.38-.65-.38-1.62,0-.38,.01-1.2,.04-1.63,.05-.74,.1-.73,.1-1.17,0-.75-.4-1.27-.75-1.54-.31-.24-.29-.23-.65-.35,1.44-2.71,1.65-3.91,1.72-3.91m-10.71,12.75c-2.21-2.28-3.12-2.72-3.09-2.81,.02-.09,1.21,.06,4.35-.59,0,.38,0,.47,.14,.86,.13,.42,.47,.97,1.18,1.23,.41,.15,.42,.11,1.14,.31,.41,.11,1.19,.38,1.55,.52,.91,.33,1.51,.63,1.4,.92-.1,.3-.8,.18-1.7-.15-.36-.13-1.12-.42-1.51-.59-.69-.3-.66-.35-1.08-.49-.7-.26-1.31-.05-1.7,.17-.41,.26-.44,.23-.68,.62m2.36,13.56c-.07-.05,.45-1.17,.77-4.35,.24,.07,.13,.04,.38,.04,.44,.02,1.07-.11,1.55-.69,.29-.34,.25-.37,.68-.96,.25-.35,.77-.98,1.02-1.28,.61-.74,1.13-1.34,1.37-1.13,.25,.19,.05,.65-.54,1.42-.23,.31-.74,.96-1.01,1.28-.49,.56-.52,.52-.79,.88-.45,.6-.44,1.25-.33,1.68,.14,.52,.2,.73,.56,1.13-2.79,1.34-3.6,2.04-3.68,1.98m16.79,0c-.08,.06-.99-.84-3.91-2.13,.27-.32,.25-.38,.39-.78,.15-.42,.2-1.06-.21-1.69-.24-.37-.27-.34-.72-.94-.26-.33-.71-1.02-.92-1.34-.53-.81-.96-1.38-.69-1.54,.23-.21,.93,.45,1.55,1.19,.24,.29,.77,.93,1.01,1.28,.44,.6,.4,.62,.69,.96,.49,.57,1.12,.71,1.56,.69,.24,0,.11-.03,.33-.08,.43,3.12,.98,4.35,.91,4.39m1.64-8.95c-.53,2.01-1.8,3.85-3.14,3.81-.53-.02-.78-.17-.97-.39-.3-.36-.36-.56-.69-1.02-.19-.25-.46-.61-.77-.97-.41-.49-1.9-2.27-2.71-1.58-.89,.58,.45,2.19,.8,2.72,.26,.4,.52,.77,.72,1.02,.34,.45,.52,.57,.77,.96,.15,.24,.23,.52,.09,1.04-.4,1.5-2.31,2.1-4.24,2.05-2.07-.07-4.16-.9-4.42-2.21-.01-.09-.02-.17-.03-.23-.03-.37,.05-.6,.2-.79,.05-.06,.09-.11,.13-.17,.21-.25,.39-.39,.71-.75,.2-.24,.49-.58,.78-.96,.38-.51,1.62-1.99,.77-2.63-.82-.69-2.2,1.03-2.61,1.52-.32,.37-.58,.73-.76,.97-.33,.46-.4,.67-.7,1.02-.19,.22-.43,.37-.96,.39-1.34,.04-2.61-1.8-3.14-3.81-.49-1.86-.67-3.88,.71-4.61,.46-.24,.76-.24,1.02-.13,.45,.16,.6,.31,1.12,.53,.28,.12,.7,.3,1.15,.47,.6,.21,2.56,.92,2.92-.07,.36-1.01-1.59-1.7-2.19-1.91-.45-.17-.89-.29-1.18-.39-.55-.15-.76-.14-1.21-.31-.26-.1-.49-.28-.69-.76-.59-1.45,.58-3.08,2.15-4.2,1.68-1.19,3.86-1.78,4.85-.89,.4,.36,.48,.63,.48,.91,0,.47-.08,.67-.12,1.24-.02,.31-.04,.76-.04,1.24,0,.64-.02,2.73,1.04,2.73s1.07-2.08,1.07-2.72c0-.49-.02-.94-.05-1.24-.04-.57-.12-.77-.12-1.23,0-.28,.08-.56,.48-.92,.98-.89,3.15-.3,4.85,.89,1.57,1.12,2.73,2.76,2.15,4.21-.2,.48-.43,.66-.7,.76-.44,.17-.65,.16-1.19,.31-.3,.09-.73,.22-1.18,.39-.6,.21-2.56,.93-2.2,1.92,.37,1,2.31,.28,2.91,.06,.45-.17,.87-.34,1.15-.47,.52-.23,.68-.37,1.12-.54,.27-.09,.56-.11,1.03,.14,1.38,.73,1.33,2.73,.83,4.59"/><path class="cls-6" d="M57.5,30.13c-.59-.41-1.27-1.1-1.5-1.3-.8-.7-5.8-7.46-6.75-9.12-.28-.48-.66-.55-.97-.55-.3,0-.69,.07-.96,.55-.96,1.67-5.96,8.43-6.75,9.12-.22,.19-.91,.89-1.5,1.3-.44,.31-1.78,1.27-1.86,2.22-.04,.54,.03,.88,.15,1.16,.12,.28,.4,.72,.58,1.06,.39-.39,4.47-4.47,4.71-4.23,.23,.23-3.71,5.18-4.1,5.55,0,0,.36,1.11,.69,1.66,.33,.55,.98,1.06,.99,1.07,.23-.37,3.85-6.15,4.18-6.02,.33,.14-2.99,6.63-3.12,6.9,0,0,1.25,1.17,1.7,1.42,.46,.25,.97,.39,1.38,.51,.09-.41,2.07-7.56,2.38-7.56s-.65,7.66-.7,7.99c.17,.06,.6,.11,1.1,.25,.34,.09,.72,.25,1.13,.28,.41-.04,.8-.19,1.13-.28,.49-.14,.93-.19,1.09-.25-.04-.34-.99-7.99-.69-7.99s2.29,7.15,2.38,7.56c.42-.12,.92-.26,1.38-.51,.46-.25,1.71-1.42,1.71-1.42-.14-.27-3.45-6.76-3.12-6.9,.33-.14,3.95,5.64,4.18,6.02,.02-.01,.67-.53,.99-1.07,.32-.55,.69-1.66,.69-1.66-.39-.36-4.33-5.31-4.1-5.55,.24-.23,4.32,3.84,4.71,4.23,.18-.34,.45-.78,.57-1.06,.13-.28,.2-.62,.15-1.16-.07-.95-1.41-1.91-1.86-2.22"/><path class="cls-3" d="M57.5,30.13c-.59-.41-1.27-1.1-1.5-1.3-.8-.7-5.8-7.46-6.75-9.12-.28-.48-.66-.55-.97-.55-.3,0-.69,.07-.96,.55-.96,1.67-5.96,8.43-6.75,9.12-.22,.19-.91,.89-1.5,1.3-.44,.31-1.78,1.27-1.86,2.22-.04,.54,.03,.88,.15,1.16,.12,.28,.4,.72,.58,1.06,.39-.39,4.47-4.47,4.71-4.23,.23,.23-3.71,5.18-4.1,5.55,0,0,.36,1.11,.69,1.66,.33,.55,.98,1.06,.99,1.07,.23-.37,3.85-6.15,4.18-6.02,.33,.14-2.99,6.63-3.12,6.9,0,0,1.25,1.17,1.7,1.42,.46,.25,.97,.39,1.38,.51,.09-.41,2.07-7.56,2.38-7.56s-.65,7.66-.7,7.99c.17,.06,.6,.11,1.1,.25,.34,.09,.72,.25,1.13,.28,.41-.04,.8-.19,1.13-.28,.49-.14,.93-.19,1.09-.25-.04-.34-.99-7.99-.69-7.99s2.29,7.15,2.38,7.56c.42-.12,.92-.26,1.38-.51,.46-.25,1.71-1.42,1.71-1.42-.14-.27-3.45-6.76-3.12-6.9,.33-.14,3.95,5.64,4.18,6.02,.02-.01,.67-.53,.99-1.07,.32-.55,.69-1.66,.69-1.66-.39-.36-4.33-5.31-4.1-5.55,.24-.23,4.32,3.84,4.71,4.23,.18-.34,.45-.78,.57-1.06,.13-.28,.2-.62,.15-1.16-.07-.95-1.41-1.91-1.86-2.22Z"/><path class="cls-6" d="M44.74,21.5h-4.3s-.42-.04-.5,.09c-.13,.2,.03,.58,.03,.58,0,0,1.44,3.77,1.45,3.8,.34-.46,2.89-3.92,3.31-4.48"/><path class="cls-3" d="M44.74,21.5h-4.3s-.42-.04-.5,.09c-.13,.2,.03,.58,.03,.58,0,0,1.44,3.77,1.45,3.8,.34-.46,2.89-3.92,3.31-4.48Z"/><path class="cls-6" d="M56.58,22.17s.16-.39,.04-.58c-.09-.13-.47-.09-.5-.09h-4.3c.42,.55,2.97,4.01,3.32,4.48,.01-.03,1.45-3.8,1.45-3.8"/><path class="cls-3" d="M56.58,22.17s.16-.39,.04-.58c-.09-.13-.47-.09-.5-.09h-4.3c.42,.55,2.97,4.01,3.32,4.48,.01-.03,1.45-3.8,1.45-3.8Z"/><path class="cls-6" d="M29.2,30.49c-.59-.41-1.28-1.11-1.5-1.3-.8-.7-5.79-7.45-6.76-9.13-.27-.48-.66-.55-.96-.55-.31,0-.69,.07-.96,.55-.96,1.68-5.96,8.43-6.76,9.13-.22,.19-.9,.88-1.5,1.3-.44,.3-1.79,1.27-1.86,2.21-.04,.54,.03,.89,.16,1.16,.12,.28,.4,.72,.58,1.06,.38-.39,4.47-4.47,4.71-4.23,.23,.23-3.71,5.18-4.1,5.55,0,0,.37,1.11,.69,1.65,.32,.55,.97,1.07,.99,1.08,.23-.37,3.85-6.15,4.18-6.01,.33,.14-2.98,6.63-3.11,6.91,0,0,1.25,1.17,1.7,1.42,.46,.25,.96,.39,1.38,.51,.1-.41,2.07-7.55,2.38-7.55s-.65,7.65-.7,7.99c.17,.06,.6,.12,1.09,.25,.34,.09,.73,.25,1.14,.29,.41-.04,.8-.19,1.14-.29,.49-.13,.93-.19,1.09-.25-.04-.33-.99-7.99-.69-7.99s2.28,7.14,2.37,7.55c.42-.12,.93-.26,1.38-.51,.45-.25,1.7-1.42,1.7-1.42-.13-.27-3.44-6.76-3.11-6.91,.33-.14,3.95,5.64,4.18,6.01,.02,0,.67-.53,.99-1.08,.32-.54,.69-1.65,.69-1.65-.38-.37-4.33-5.32-4.09-5.55,.23-.24,4.32,3.84,4.7,4.23,.18-.34,.45-.78,.58-1.06,.12-.27,.19-.62,.15-1.16-.08-.94-1.42-1.91-1.86-2.21"/><path class="cls-3" d="M29.2,30.49c-.59-.41-1.28-1.11-1.5-1.3-.8-.7-5.79-7.45-6.76-9.13-.27-.48-.66-.55-.96-.55-.31,0-.69,.07-.96,.55-.96,1.68-5.96,8.43-6.76,9.13-.22,.19-.9,.88-1.5,1.3-.44,.3-1.79,1.27-1.86,2.21-.04,.54,.03,.89,.16,1.16,.12,.28,.4,.72,.58,1.06,.38-.39,4.47-4.47,4.71-4.23,.23,.23-3.71,5.18-4.1,5.55,0,0,.37,1.11,.69,1.65,.32,.55,.97,1.07,.99,1.08,.23-.37,3.85-6.15,4.18-6.01,.33,.14-2.98,6.63-3.11,6.91,0,0,1.25,1.17,1.7,1.42,.46,.25,.96,.39,1.38,.51,.1-.41,2.07-7.55,2.38-7.55s-.65,7.65-.7,7.99c.17,.06,.6,.12,1.09,.25,.34,.09,.73,.25,1.14,.29,.41-.04,.8-.19,1.14-.29,.49-.13,.93-.19,1.09-.25-.04-.33-.99-7.99-.69-7.99s2.28,7.14,2.37,7.55c.42-.12,.93-.26,1.38-.51,.45-.25,1.7-1.42,1.7-1.42-.13-.27-3.44-6.76-3.11-6.91,.33-.14,3.95,5.64,4.18,6.01,.02,0,.67-.53,.99-1.08,.32-.54,.69-1.65,.69-1.65-.38-.37-4.33-5.32-4.09-5.55,.23-.24,4.32,3.84,4.7,4.23,.18-.34,.45-.78,.58-1.06,.12-.27,.19-.62,.15-1.16-.08-.94-1.42-1.91-1.86-2.21Z"/><path class="cls-6" d="M16.43,21.85h-4.29s-.41-.04-.51,.09c-.13,.2,.04,.58,.04,.58,0,0,1.44,3.77,1.46,3.8,.33-.45,2.89-3.92,3.3-4.47"/><path class="cls-3" d="M16.43,21.85h-4.29s-.41-.04-.51,.09c-.13,.2,.04,.58,.04,.58,0,0,1.44,3.77,1.46,3.8,.33-.45,2.89-3.92,3.3-4.47Z"/><path class="cls-6" d="M28.28,22.53s.17-.38,.04-.58c-.09-.13-.47-.09-.5-.09h-4.3c.41,.56,2.97,4.02,3.31,4.47,.02-.02,1.46-3.8,1.46-3.8"/><path class="cls-3" d="M28.28,22.53s.17-.38,.04-.58c-.09-.13-.47-.09-.5-.09h-4.3c.41,.56,2.97,4.02,3.31,4.47,.02-.02,1.46-3.8,1.46-3.8Z"/><path class="cls-6" d="M85.65,30.49c-.6-.41-1.28-1.11-1.5-1.3-.8-.7-5.8-7.45-6.75-9.13-.27-.48-.66-.55-.96-.55-.31,0-.7,.07-.97,.55-.96,1.68-5.95,8.43-6.75,9.13-.22,.19-.91,.88-1.51,1.3-.44,.3-1.79,1.27-1.86,2.21-.04,.54,.03,.89,.15,1.16,.13,.28,.4,.72,.58,1.06,.37-.39,4.47-4.47,4.7-4.23,.24,.23-3.71,5.18-4.1,5.55,0,0,.37,1.11,.69,1.65,.32,.55,.97,1.07,1,1.08,.22-.37,3.85-6.15,4.17-6.01,.33,.14-2.97,6.63-3.11,6.91,0,0,1.25,1.17,1.7,1.42,.46,.25,.97,.39,1.38,.51,.09-.41,2.08-7.55,2.38-7.55s-.66,7.65-.7,7.99c.17,.06,.6,.12,1.09,.25,.34,.09,.73,.25,1.14,.29,.41-.04,.79-.19,1.13-.29,.49-.13,.93-.19,1.09-.25-.04-.33-.99-7.99-.69-7.99s2.28,7.14,2.38,7.55c.41-.12,.92-.26,1.38-.51,.45-.25,1.7-1.42,1.7-1.42-.13-.27-3.45-6.76-3.11-6.91,.32-.14,3.95,5.64,4.18,6.01,.01,0,.66-.53,.98-1.08,.33-.54,.69-1.65,.69-1.65-.38-.37-4.34-5.32-4.1-5.55,.23-.24,4.33,3.84,4.7,4.23,.18-.34,.46-.78,.58-1.06,.12-.27,.2-.62,.16-1.16-.07-.94-1.41-1.91-1.86-2.21"/><path class="cls-3" d="M85.65,30.49c-.6-.41-1.28-1.11-1.5-1.3-.8-.7-5.8-7.45-6.75-9.13-.27-.48-.66-.55-.96-.55-.31,0-.7,.07-.97,.55-.96,1.68-5.95,8.43-6.75,9.13-.22,.19-.91,.88-1.51,1.3-.44,.3-1.79,1.27-1.86,2.21-.04,.54,.03,.89,.15,1.16,.13,.28,.4,.72,.58,1.06,.37-.39,4.47-4.47,4.7-4.23,.24,.23-3.71,5.18-4.1,5.55,0,0,.37,1.11,.69,1.65,.32,.55,.97,1.07,1,1.08,.22-.37,3.85-6.15,4.17-6.01,.33,.14-2.97,6.63-3.11,6.91,0,0,1.25,1.17,1.7,1.42,.46,.25,.97,.39,1.38,.51,.09-.41,2.08-7.55,2.38-7.55s-.66,7.65-.7,7.99c.17,.06,.6,.12,1.09,.25,.34,.09,.73,.25,1.14,.29,.41-.04,.79-.19,1.13-.29,.49-.13,.93-.19,1.09-.25-.04-.33-.99-7.99-.69-7.99s2.28,7.14,2.38,7.55c.41-.12,.92-.26,1.38-.51,.45-.25,1.7-1.42,1.7-1.42-.13-.27-3.45-6.76-3.11-6.91,.32-.14,3.95,5.64,4.18,6.01,.01,0,.66-.53,.98-1.08,.33-.54,.69-1.65,.69-1.65-.38-.37-4.34-5.32-4.1-5.55,.23-.24,4.33,3.84,4.7,4.23,.18-.34,.46-.78,.58-1.06,.12-.27,.2-.62,.16-1.16-.07-.94-1.41-1.91-1.86-2.21Z"/><path class="cls-6" d="M72.89,21.85h-4.3s-.41-.04-.5,.09c-.13,.2,.03,.58,.03,.58,0,0,1.44,3.77,1.45,3.8,.35-.45,2.9-3.92,3.32-4.47"/><path class="cls-3" d="M72.89,21.85h-4.3s-.41-.04-.5,.09c-.13,.2,.03,.58,.03,.58,0,0,1.44,3.77,1.45,3.8,.35-.45,2.9-3.92,3.32-4.47Z"/><path class="cls-6" d="M84.73,22.53s.17-.38,.03-.58c-.08-.13-.46-.09-.5-.09h-4.3c.41,.56,2.98,4.02,3.31,4.47,.02-.02,1.46-3.8,1.46-3.8"/><path class="cls-3" d="M84.73,22.53s.17-.38,.03-.58c-.08-.13-.46-.09-.5-.09h-4.3c.41,.56,2.98,4.02,3.31,4.47,.02-.02,1.46-3.8,1.46-3.8Z"/><path d="M30.37,29.54h0c-.38-.26-1.21-.93-1.46-1.18-.15-.14-.53-.56-1.06-1.18,0,0-.05-.06-.05-.06,.02,0,1.71-4.32,1.71-4.32,.11-.31,.17-.6,.17-.85s-.09-.55-.25-.76c-.24-.34-.62-.52-1.14-.53,0,0-5.15-.01-5.37-.01-.05-.2-.56-1.01-.67-1.18-.54-1.02-1.16-1.39-2.26-1.39-1.12,0-1.74,.38-2.28,1.4-.11,.16-.62,.97-.67,1.18-.04,0-5.37,.01-5.37,.01-.53,.02-.9,.2-1.14,.53-.15,.21-.24,.5-.24,.76s.06,.54,.17,.85c0,0,1.64,4.23,1.69,4.35-.01,0-.04,.03-.04,.03-.54,.63-.9,1.04-1.06,1.18-.26,.25-1.07,.93-1.46,1.18-1.45,.95-2.24,2.09-2.24,3.23v.07c.03,1.09,.71,2.24,1.11,2.93l.24,.43c.22,.51,1.2,2.51,1.7,3.16,.45,.59,3.07,2.92,3.93,3.37,.68,.36,1.75,.56,2.26,.66,0,0,.28,.06,.28,.06,.39,.13,2.31,.76,3.12,.76s2.74-.64,3.12-.76c0,0,.28-.06,.28-.06,.51-.1,1.58-.31,2.27-.66,.85-.45,3.47-2.78,3.92-3.37,.5-.66,1.48-2.65,1.71-3.17l.24-.43c.4-.69,1.08-1.84,1.11-2.92v-.07c0-1.14-.79-2.29-2.24-3.23m-4.82,1.17c.01,.56,3.78,5.21,4.1,5.54-.04,.11-.38,1.11-.68,1.61-.27,.46-.8,.91-.93,1.02-.23-.37-3.82-6.15-4.22-5.99-.01,.01-.04,.04-.04,.04,0,0-.01,.06-.01,.06,0,.43,1.03,2.68,3.06,6.71,0,0,.04,.09,.06,.12-.17,.16-1.25,1.16-1.67,1.38-.44,.24-.94,.39-1.31,.5-.11-.39-2.04-7.55-2.41-7.55h-.02l-.04,.03s-.06,.1-.06,.42c0,1.59,.7,7.22,.74,7.55-.05,.02-.34,.08-.34,.08l-.71,.16s-.3,.09-.3,.09c-.26,.08-.54,.17-.82,.2-.28-.02-.54-.11-.81-.19-.01,0-.31-.09-.31-.09,0,0-.71-.16-.71-.16,0,0-.27-.06-.34-.08,.05-.33,.74-5.97,.74-7.56,0-.32-.02-.39-.05-.42h0s-.05-.03-.05-.03c-.37,0-2.31,7.16-2.42,7.55-.35-.1-.87-.25-1.32-.5-.42-.23-1.56-1.29-1.66-1.38,.02-.03,.08-.17,.08-.17,1.39-2.75,3.04-6.14,3.04-6.66v-.06s-.04-.04-.04-.04c-.41-.18-4,5.61-4.23,5.98-.14-.11-.65-.56-.93-1.02-.32-.52-.67-1.59-.68-1.63,.23-.2,4.1-4.95,4.11-5.51,0-.01-.02-.06-.02-.06-.02-.01-.06-.03-.06-.03-.48,0-4.35,3.88-4.68,4.21-.04-.06-.2-.36-.2-.36l-.34-.62c-.1-.24-.16-.53-.16-.85v-.29c.06-.62,.71-1.39,1.85-2.18,.45-.31,.96-.79,1.27-1.09,.01,0,.24-.22,.24-.22,.8-.7,5.79-7.45,6.76-9.14,.26-.46,.63-.52,.92-.52,.29,0,.65,.07,.91,.52,.97,1.69,5.96,8.44,6.77,9.14l.23,.21c.31,.29,.82,.77,1.28,1.09,.65,.45,1.76,1.34,1.83,2.18v.29c.01,.32-.04,.6-.15,.85l-.32,.59s-.17,.31-.22,.4c-.33-.33-4.19-4.21-4.66-4.21-.01,0-.06,.02-.06,.02-.02,.01-.04,.07-.04,.07m-1.93-8.81h4.21c.33-.02,.41,.04,.44,.07l.04,.17c0,.17-.08,.36-.08,.36,0,0-1.24,3.25-1.42,3.71-.07-.09-2.88-3.9-3.18-4.31m-7.3,0c-.08,.11-3.12,4.22-3.19,4.31-.04-.11-1.42-3.71-1.42-3.71-.01-.02-.08-.2-.08-.36l.05-.17s.1-.09,.42-.07h4.22"/><path d="M58.68,29.18h0c-.39-.26-1.21-.93-1.47-1.18-.15-.15-.52-.57-1.05-1.19l-.05-.05s1.7-4.32,1.7-4.32c.12-.32,.18-.6,.18-.85s-.09-.55-.25-.76c-.24-.33-.62-.51-1.14-.53,0,0-5.15,0-5.37,0-.05-.21-.52-.95-.67-1.18-.54-1.01-1.16-1.39-2.27-1.39-1.12,0-1.74,.38-2.28,1.4-.15,.23-.62,.97-.66,1.17-.04,0-5.37,0-5.37,0-.52,.02-.9,.19-1.14,.53-.15,.21-.25,.5-.25,.76s.07,.54,.17,.85c0,0,1.65,4.22,1.69,4.34-.01,0-.04,.03-.04,.03-.54,.63-.91,1.04-1.06,1.19-.25,.25-1.07,.92-1.46,1.17-1.45,.95-2.25,2.1-2.25,3.24v.07c.03,1.09,.71,2.24,1.11,2.93l.24,.43c.22,.51,1.2,2.51,1.7,3.16,.45,.59,3.07,2.92,3.92,3.37,.68,.36,1.75,.57,2.27,.66,0,0,.28,.06,.28,.06,.23,.07,2.28,.76,3.12,.76s2.73-.63,3.11-.76c0,0,.28-.06,.28-.06,.52-.1,1.58-.31,2.27-.66,.86-.45,3.48-2.78,3.92-3.37,.5-.65,1.48-2.65,1.71-3.16,0,0,.24-.44,.24-.44,.4-.68,1.08-1.84,1.11-2.92v-.06c0-1.14-.8-2.29-2.24-3.24m-4.82,1.17c0,.56,3.78,5.2,4.09,5.54-.03,.11-.37,1.11-.67,1.61-.27,.45-.78,.9-.93,1.02-.22-.36-3.82-6.15-4.21-5.98-.01,0-.04,.04-.04,.04-.01,0-.02,.06-.02,.06,0,.43,1.03,2.68,3.06,6.71,0,0,.05,.09,.07,.13-.17,.16-1.26,1.16-1.66,1.38-.44,.24-.94,.39-1.31,.49-.1-.39-2.04-7.54-2.42-7.54h-.01l-.04,.03s-.05,.1-.05,.42c0,1.59,.7,7.21,.74,7.55-.05,.01-.34,.08-.34,.08l-.7,.16s-.3,.09-.3,.09c-.27,.08-.54,.17-.82,.2-.28-.03-.55-.12-.81-.19,0,0-.31-.1-.31-.1,0,0-.71-.16-.71-.16,0,0-.27-.06-.34-.08,.04-.34,.74-5.97,.74-7.55,0-.32-.02-.39-.05-.42h-.01s-.05-.03-.05-.03c-.37,0-2.31,7.15-2.41,7.54-.36-.1-.87-.25-1.31-.49-.41-.22-1.43-1.17-1.66-1.38,.01-.04,.09-.18,.09-.18,1.38-2.75,3.03-6.14,3.03-6.66v-.06s-.04-.04-.04-.04c-.42-.18-4.01,5.61-4.23,5.98-.14-.11-.66-.56-.93-1.02-.31-.53-.67-1.59-.68-1.64,.23-.2,4.1-4.95,4.11-5.51,0-.01-.02-.06-.02-.06-.02-.02-.07-.04-.07-.04-.48,0-4.35,3.88-4.67,4.2-.04-.06-.21-.37-.21-.37l-.34-.62c-.11-.25-.16-.52-.16-.85v-.28c.06-.62,.71-1.39,1.84-2.18,.45-.31,.97-.79,1.27-1.08,0,0,.24-.22,.24-.22,.81-.7,5.8-7.46,6.77-9.14,.26-.46,.63-.52,.92-.52,.29,0,.65,.07,.91,.52,.97,1.69,5.96,8.44,6.76,9.14l.23,.21c.31,.29,.82,.77,1.28,1.09,.66,.45,1.77,1.34,1.83,2.18l.02,.28c0,.33-.06,.6-.16,.85l-.33,.63s-.16,.27-.2,.36c-.33-.33-4.19-4.2-4.67-4.2-.01,0-.06,.01-.06,.01-.01,.02-.03,.07-.03,.07m-1.94-8.8h4.22c.32-.02,.4,.04,.43,.07,0,0,.04,.17,.04,.17l-.08,.36s-1.24,3.25-1.42,3.71c-.07-.09-2.89-3.9-3.19-4.31m-7.29,0c-.08,.1-3.12,4.22-3.19,4.31-.04-.11-1.42-3.7-1.42-3.7,0-.03-.08-.2-.08-.36l.04-.17s.11-.09,.43-.07c0,0,4.08,0,4.22,0"/><path d="M86.82,29.54h0c-.38-.26-1.21-.93-1.47-1.18-.15-.14-.52-.56-1.05-1.18,0,0-.05-.06-.05-.06,.02,0,1.7-4.32,1.7-4.32,.12-.31,.17-.6,.17-.85s-.09-.55-.24-.76c-.24-.34-.62-.52-1.14-.53,0,0-5.15-.01-5.38-.01-.04-.2-.52-.94-.66-1.18-.54-1.02-1.15-1.39-2.27-1.39-1.12,0-1.74,.38-2.28,1.4-.15,.23-.62,.97-.66,1.18-.05,0-5.37,.01-5.37,.01-.52,.02-.89,.2-1.14,.53-.15,.21-.25,.5-.25,.76s.06,.54,.17,.85c0,0,1.64,4.23,1.69,4.35,0,0-.03,.03-.03,.03-.55,.63-.9,1.04-1.06,1.18-.26,.25-1.08,.92-1.47,1.18-1.45,.95-2.25,2.09-2.25,3.23v.07c.03,1.09,.71,2.24,1.11,2.93l.24,.43c.22,.51,1.2,2.51,1.7,3.16,.45,.59,3.07,2.92,3.92,3.37,.68,.36,1.75,.56,2.26,.66,0,0,.28,.06,.28,.06,.23,.08,2.27,.76,3.12,.76s2.74-.64,3.12-.76l.27-.06c.52-.1,1.59-.31,2.27-.66,.85-.45,3.46-2.78,3.91-3.37,.51-.66,1.48-2.65,1.71-3.17l.24-.43c.41-.69,1.08-1.84,1.11-2.92v-.07c0-1.14-.79-2.29-2.24-3.23m-4.81,1.17c.01,.56,3.78,5.21,4.1,5.54-.04,.11-.37,1.11-.68,1.61-.27,.46-.78,.9-.93,1.02-.23-.37-3.83-6.15-4.22-5.99-.01,.01-.04,.04-.04,.04,0,0-.02,.06-.02,.06,0,.43,1.04,2.68,3.06,6.71,0,0,.05,.09,.06,.12-.17,.16-1.26,1.16-1.66,1.38-.44,.24-.94,.39-1.32,.5-.1-.39-2.04-7.55-2.41-7.55h-.02l-.04,.03s-.05,.1-.05,.42c0,1.59,.7,7.22,.75,7.55-.06,.02-.35,.08-.35,.08l-.7,.16-.3,.09c-.27,.08-.54,.17-.82,.2-.28-.02-.56-.11-.82-.19,0,0-.31-.09-.31-.09l-.7-.16s-.27-.06-.34-.08c.04-.33,.75-5.97,.75-7.56,0-.32-.03-.39-.05-.42h-.02s-.04-.03-.04-.03c-.38,0-2.32,7.16-2.42,7.55-.36-.1-.88-.25-1.31-.5-.4-.22-1.43-1.16-1.66-1.38,.02-.04,.08-.17,.08-.17,1.39-2.75,3.04-6.14,3.04-6.66v-.06s-.04-.04-.04-.04c-.41-.18-4,5.61-4.23,5.98-.13-.11-.66-.56-.93-1.02-.31-.52-.66-1.59-.68-1.63,.24-.2,4.1-4.95,4.11-5.51,0-.01-.02-.06-.02-.06-.02-.01-.06-.03-.06-.03-.48,0-4.35,3.88-4.68,4.21-.03-.06-.21-.36-.21-.36l-.33-.62c-.11-.24-.16-.53-.16-.85l.02-.29c.05-.62,.7-1.39,1.83-2.18,.45-.31,.97-.79,1.27-1.09,.01,0,.24-.22,.24-.22,.81-.7,5.8-7.45,6.77-9.14,.26-.46,.63-.52,.92-.52,.29,0,.65,.07,.91,.52,.97,1.69,5.96,8.44,6.77,9.14l.24,.21c.3,.29,.82,.77,1.27,1.09,.65,.45,1.77,1.34,1.84,2.18v.29c0,.32-.04,.6-.15,.85l-.34,.62s-.15,.28-.21,.36c-.32-.33-4.19-4.21-4.66-4.21,0,0-.05,.02-.05,.02-.02,.01-.04,.07-.04,.07m-1.94-8.81h4.22c.32-.02,.41,.04,.43,.07l.04,.17-.08,.36s-1.24,3.25-1.42,3.71c-.07-.09-2.89-3.9-3.19-4.31m-7.29,0c-.08,.11-3.12,4.22-3.19,4.31-.04-.11-1.42-3.71-1.42-3.71,0-.02-.08-.2-.08-.36l.04-.17s.11-.09,.43-.07h4.22"/></g></g></svg>