<?xml version="1.0" encoding="UTF-8"?><svg xmlns="http://www.w3.org/2000/svg" viewBox="0 0 409.57 160"><defs><style>.f{fill:#4f9eff;}</style></defs><g id="a"/><g id="b"><g id="c"><g id="d"><g id="e"><path class="f" d="M0,0H116.43L58.21,80,0,0Z"/><path class="f" d="M58.21,80l58.21,80H0"/><path class="f" d="M132.32,104.45l-15.63-48h6.72l7.47,23.6c2.05,6.45,3.84,12.29,5.12,17.89h0c1.36-5.49,3.33-11.57,5.49-17.84l8-23.65h6.77l-17.15,48h-6.8Z"/><path class="f" d="M178.29,56.59v48h-6.16V56.59h6.16Z"/><path class="f" d="M208.85,61.81h-14.56v-5.33h35.44v5.33h-14.64v42.67h-6.29l.05-42.67Z"/><path class="f" d="M270.51,82h-18.67v17.31h20.75v5.17h-26.88V56.48h25.87v5.33h-19.63v15.09h18.67l-.11,5.09Z"/><path class="f" d="M290.48,96.91c3.34,2.03,7.16,3.12,11.07,3.15,6.35,0,10.03-3.33,10.03-8.16s-2.67-7.07-9.01-9.52c-7.81-2.67-12.64-6.83-12.64-13.57,0-7.47,6.16-13.01,15.47-13.01,3.7-.13,7.37,.69,10.67,2.37l-1.71,5.04c-2.79-1.51-5.92-2.29-9.09-2.27-6.53,0-9.01,3.92-9.01,7.17,0,4.48,2.91,6.67,9.52,9.23,8,3.15,12.21,7.04,12.21,14.08s-5.49,13.79-16.75,13.79c-4.28,.05-8.49-1.01-12.24-3.07l1.49-5.23Z"/><path class="f" d="M336.16,96.93c3.35,2.01,7.18,3.09,11.09,3.12,6.27,0,10-3.33,10-8.16s-2.67-7.07-9.01-9.52c-7.81-2.67-12.64-6.83-12.64-13.57,0-7.49,6.16-12.99,15.47-12.99,3.7-.15,7.37,.66,10.67,2.35l-1.73,5.04c-2.8-1.49-5.92-2.27-9.09-2.27-6.56,0-9.04,3.95-9.04,7.17,0,4.48,2.93,6.67,9.52,9.25,8,3.15,12.24,7.01,12.24,14.05s-5.52,13.79-16.77,13.79c-4.27,.05-8.48-1.01-12.21-3.07l1.52-5.2Z"/><path class="f" d="M407.49,82h-18.67v17.31h20.75v5.17h-26.93V56.48h25.87v5.33h-19.65v15.09h18.67l-.03,5.09Z"/></g></g></g></g></svg>